# xmcd CD database file
#
# Track frame offsets:
#	180
#	13371
#	26558
#	43653
#	54647
#	63872
#	73945
#	86579
#	99495
#	110136
#	123786
#	141425
#	155937
#	171223
#	181837
#	193206
#	204211
#	214156
#	225084
#	236836
#
# Disc length: 3329 seconds
#
# Revision: 2
# Processed by: cddbd v1.4b41PL1 Copyright (c) Steve Scherf et al.
# Submitted via: Feurio! 1.52 - http://www.feurio.com
#
DISCID=240cff14
DTITLE=EL MARIACHI DE MI TIERRA - EL MARIACHI DE MI TIERRA
DYEAR=1900
DGENRE=
TTITLE0=LA NEGRA
TTITLE1=EL MARIACHI
TTITLE2=GUADALAJARA
TTITLE3=LA BAMBA
TTITLE4=EL MARACUMBE
TTITLE5=ATOTONILCO
TTITLE6=EL TRISTE
TTITLE7=EL GAVILANCILLO
TTITLE8=EL CARRETERO
TTITLE9=LA CULEBRA
TTITLE10=CIELITO LINDO
TTITLE11=LAS OLAS
TTITLE12=QUE BONITA ES MI TIERRA
TTITLE13=LA VAQUILLA
TTITLE14=LA MADRUGADA
TTITLE15=CAMINO REAL DE COLIMA
TTITLE16=LAS ALAZANAS
TTITLE17=BONITO TECALITLAN
TTITLE18=LAS COPETONAS
TTITLE19=LAS MAÑANITAS
EXTD=
EXTT0=
EXTT1=
EXTT2=
EXTT3=
EXTT4=
EXTT5=
EXTT6=
EXTT7=
EXTT8=
EXTT9=
EXTT10=
EXTT11=
EXTT12=
EXTT13=
EXTT14=
EXTT15=
EXTT16=
EXTT17=
EXTT18=
EXTT19=
PLAYORDER=
